<svg xmlns="http://www.w3.org/2000/svg" viewBox="0 0 213.96 213.96">
  <defs>
    <style>
      .a {
        fill: #fff;
      }
    </style>
  </defs>
  <title>logo</title>
  <g>
    <circle cx="106.98" cy="106.98" r="106.98" fill="currentColor"/>
    <g>
      <path class="a" d="M38.19,132.06c1-8.16,6.24-14.4,14.52-14.4s11.4,6.12,10.68,12.24-4,10.68-10.44,12.72a10.78,10.78,0,0,0,5,1.2c6.48,0,8.88-5,9.84-13.2l7.2-59H63l.84-6h46.79l-.84,6h-7.19L96.26,123.9C93.87,143.58,82,150.78,61.83,150.78,47.55,150.78,36.51,145,38.19,132.06Z"/>
      <path class="a" d="M109.11,107c3-24,19.44-43.8,42.11-43.8,7.2,0,12.12,1.44,15.24,5l5.28-3.84h4.2L172.46,92h-6c1.44-10.92-2.4-21.6-11-21.6-10.31,0-14.15,9.48-17.51,36.6s-1.32,36.6,8.64,36.6c10.32,0,15.71-12.12,16.91-22.08h6L166,149.58h-4.2l-4.07-5a25.61,25.61,0,0,1-16.92,6.24C117.75,150.78,106.11,131,109.11,107Z"/>
    </g>
  </g>
</svg>
